<svg width="38" height="316" viewBox="0 0 38 316" fill="none" xmlns="http://www.w3.org/2000/svg">
<path d="M26.6545 12.5118L24.8828 11.2852C24.6458 11.1212 24.3208 11.1803 24.1568 11.4172C23.9927 11.6541 24.0519 11.9791 24.2888 12.1432L26.0605 13.3698C26.2952 13.5322 26.6242 13.4722 26.7865 13.2379C26.9505 13.0008 26.8914 12.6758 26.6545 12.5118Z" fill="#4D4D4D"/>
<path d="M30.1981 14.9649L28.4263 13.7384C28.1894 13.5743 27.8645 13.6334 27.7003 13.8703C27.5362 14.1072 27.5953 14.4322 27.8322 14.5963C27.8322 14.5963 29.6005 15.8204 29.604 15.8229C29.8296 15.9791 30.1651 15.929 30.33 15.6909C30.494 15.454 30.435 15.129 30.1981 14.9649Z" fill="#4D4D4D"/>
<path d="M13.4377 14.4046L11.3398 13.9122C11.0594 13.8465 10.7786 14.0204 10.7126 14.301C10.6468 14.5815 10.8209 14.8623 11.1014 14.9282L13.1993 15.4205C13.2394 15.4299 13.2794 15.4344 13.319 15.4344C13.5557 15.4344 13.77 15.2721 13.8265 15.0317C13.8923 14.7511 13.7182 14.4703 13.4377 14.4046Z" fill="#4D4D4D"/>
<path d="M17.6336 15.3892L15.5357 14.8969C15.2552 14.8311 14.9745 15.005 14.9086 15.2856C14.8427 15.5662 15.0168 15.8469 15.2973 15.9127L17.3952 16.405C17.4353 16.4144 17.4753 16.419 17.5149 16.419C17.7516 16.419 17.9659 16.2567 18.0224 16.0164C18.0882 15.7357 17.9141 15.455 17.6336 15.3892Z" fill="#4D4D4D"/>
<path d="M18.4518 17.8612L13.6984 16.7457C13.418 16.68 13.1372 16.8539 13.0712 17.1345C13.0054 17.415 13.1795 17.6958 13.46 17.7616L17.7055 18.7578L14.2802 33.3549L6.35167 31.4944L9.77685 16.8973L11.3908 17.276C11.6714 17.3418 11.9521 17.1678 12.018 16.8873C12.0838 16.6068 11.9097 16.326 11.6292 16.2602L9.50729 15.7623C9.22741 15.6965 8.9461 15.8705 8.88016 16.151L5.21654 31.7639C5.15073 32.0445 5.32479 32.3253 5.60529 32.3911L14.5497 34.4899C14.589 34.4992 14.6291 34.5037 14.6689 34.5037C14.7653 34.5037 14.8605 34.477 14.9438 34.4254C15.0614 34.3525 15.1452 34.2359 15.1769 34.1012L18.8406 18.4883C18.9063 18.2077 18.7323 17.927 18.4518 17.8612Z" fill="#4D4D4D"/>
<path d="M15.7753 23.7475C15.6877 23.5391 15.4762 23.4109 15.2507 23.4298L13.2986 23.5935L12.5397 21.7876C12.4522 21.5792 12.2401 21.4509 12.0151 21.4698C11.7899 21.4887 11.6024 21.6505 11.5507 21.8706L11.1032 23.7777L9.15117 23.9414C8.92599 23.9603 8.73843 24.1221 8.6868 24.3421C8.63518 24.5622 8.73111 24.7905 8.92443 24.9075L10.5999 25.9224L10.1524 27.8295C10.1007 28.0496 10.1967 28.2779 10.39 28.395C10.4735 28.4456 10.5671 28.4705 10.6602 28.4705C10.7825 28.4705 10.904 28.4275 11.0012 28.3437L12.4841 27.0639L14.1596 28.0788C14.3528 28.1959 14.5996 28.1753 14.7708 28.0276C14.9419 27.8799 14.9984 27.6388 14.9109 27.4305L14.152 25.6246L15.635 24.3448C15.8064 24.197 15.8628 23.9559 15.7753 23.7475ZM13.0434 25.6793L13.327 26.3543C13.327 26.3543 12.7008 25.975 12.7007 25.9749C12.2674 25.7124 11.8322 26.2482 11.5352 26.5045L11.7025 25.7918C11.7541 25.5717 11.6582 25.3434 11.4649 25.2263L10.8386 24.8469C10.8386 24.8469 11.5672 24.7858 11.5682 24.7858C12.0748 24.7433 12.1105 24.0528 12.1998 23.6722C12.1998 23.6722 12.4828 24.3457 12.4834 24.3472C12.6809 24.8169 13.3469 24.6365 13.7377 24.6038C13.4367 24.8637 12.8409 25.1975 13.0434 25.6793Z" fill="#4D4D4D"/>
<path d="M34.7752 13.9727C34.3305 13.6649 34.18 13.07 34.425 12.589C34.5435 12.3564 34.4717 12.0719 34.257 11.9233L31.5885 10.0759C31.3737 9.9273 31.0824 9.96018 30.9062 10.1529C30.7017 10.3769 30.4092 10.5053 30.1039 10.5053C29.8832 10.5053 29.6702 10.4386 29.4878 10.3122C29.0431 10.0044 28.8926 9.40949 29.1375 8.92843C29.256 8.69581 29.1842 8.41137 28.9696 8.26274L26.3012 6.41531C26.0865 6.26675 25.7951 6.29962 25.619 6.49237C25.4145 6.71631 25.1219 6.84462 24.8167 6.84475C24.596 6.84475 24.383 6.77806 24.2005 6.65162C23.9637 6.48768 23.6386 6.54668 23.4746 6.78356L20.458 11.1407C20.4094 11.1095 20.3551 11.0857 20.2961 11.0718L17.1363 10.3304C16.8821 10.2707 16.6229 10.4082 16.5297 10.6521C16.339 11.1509 15.7869 11.4416 15.2682 11.3199C14.7418 11.1963 14.3838 10.698 14.4354 10.1606C14.4604 9.90074 14.2894 9.66237 14.0353 9.60268L10.8755 8.86124C10.6215 8.80156 10.3623 8.93905 10.269 9.18293C10.0783 9.68118 9.52571 9.97237 9.00746 9.85074C8.72727 9.78493 8.44627 9.95899 8.38034 10.2395C8.38034 10.2395 7.59909 13.5687 7.5984 13.5717L3.01391 33.1091C2.9481 33.3897 3.12216 33.6704 3.40266 33.7363C3.92916 33.8598 4.28716 34.3582 4.23547 34.8955C4.21047 35.1554 4.38147 35.3938 4.63559 35.4534L7.79527 36.1949C8.0499 36.2546 8.30859 36.1171 8.40184 35.8733C8.84115 34.7242 10.6135 35.1444 10.4962 36.3647C10.4712 36.6246 10.6422 36.8629 10.8964 36.9226L14.0561 37.6641C14.3071 37.7228 14.5704 37.5835 14.6626 37.3423C14.8219 36.9256 15.2287 36.6455 15.6748 36.6455C15.9049 36.6455 16.1026 36.7438 16.3183 36.6102C16.4358 36.5373 16.5197 36.4206 16.5514 36.2859L17.2375 33.362C17.2375 33.362 18.7087 34.3805 18.7092 34.3809C18.9166 34.5245 19.2159 34.4959 19.3915 34.3038C19.5959 34.0799 19.8884 33.9516 20.1937 33.9516C20.4144 33.9516 20.6274 34.0184 20.8099 34.1447C21.0469 34.3086 21.3718 34.2495 21.5359 34.0126L34.9071 14.6987C35.0712 14.4619 35.0121 14.1367 34.7752 13.9727ZM17.1826 29.0268C17.1826 29.0268 16.3963 32.3777 16.3963 32.3779L15.6396 35.6024C14.9349 35.6142 14.2839 35.9813 13.9013 36.556L11.528 35.9991C11.419 35.134 10.7797 34.3957 9.90165 34.1897C9.04396 33.9884 8.12859 34.354 7.64059 35.0869L5.26728 34.53C5.1799 33.8369 4.75222 33.2251 4.13397 32.9034L8.49546 14.3167L9.00346 14.4359C9.04352 14.4453 9.08352 14.4499 9.12308 14.4499C9.35977 14.4499 9.57408 14.2875 9.63058 14.0472C9.6964 13.7666 9.52233 13.4859 9.24177 13.42L8.7339 13.3009L9.29183 10.9232C9.99658 10.9114 10.6475 10.5442 11.0301 9.96955L13.4035 10.5265C13.5125 11.3916 14.1517 12.1299 15.0298 12.336C15.8873 12.5372 16.803 12.1716 17.2908 11.4388L19.6642 11.9957C19.6709 11.9974 19.686 12.1325 19.689 12.1475C19.72 12.3012 19.7699 12.456 19.8353 12.6006C20.0314 13.0352 20.3736 13.4026 20.7974 13.6225L20.2394 16.0008L19.7314 15.8816C19.4514 15.8159 19.1702 15.9898 19.1043 16.2704C19.0384 16.5509 19.2125 16.8317 19.4931 16.8975L20.0009 17.0167L19.1712 20.5528C19.1712 20.5528 19.0806 20.939 19.0805 20.9393L18.4713 23.5355C18.4712 23.5353 17.1826 29.0266 17.1826 29.0268ZM32.3988 16.4887L31.9698 16.1917C31.733 16.0276 31.4079 16.0868 31.2439 16.3236C31.0798 16.5605 31.1389 16.8855 31.3759 17.0496L31.8048 17.3466L20.938 33.0425C20.7015 32.9538 20.4501 32.9079 20.1934 32.9079C19.753 32.9079 19.3258 33.0449 18.9708 33.2929L17.4935 32.2701L18.0237 30.0108L20.3312 31.6083C20.5656 31.7704 20.8949 31.7106 21.0571 31.4763L27.7667 21.785C27.9307 21.548 27.8717 21.223 27.6348 21.059C27.3979 20.8949 27.0729 20.954 26.9088 21.1909L20.4961 30.4533L18.2798 28.9189L19.2971 24.5836L21.1297 23.9417L22.3169 25.4998C22.4176 25.6319 22.5723 25.7053 22.732 25.7053C22.7896 25.7053 22.8479 25.6958 22.9044 25.676C23.1177 25.6013 23.2587 25.3977 23.2536 25.1716L23.2089 23.2133L25.0576 22.5658C25.2709 22.4911 25.4119 22.2875 25.4067 22.0615C25.4016 21.8356 25.2516 21.6386 25.035 21.5737L23.1587 21.0108L23.114 19.0524C23.1089 18.8264 22.9588 18.6295 22.7422 18.5645C22.5257 18.4996 22.2921 18.5815 22.1634 18.7673L21.0485 20.3778L20.3341 20.1636L21.6773 14.4397L22.3347 13.49L29.0305 18.1257L28.1227 19.4372C27.9586 19.6742 28.0177 19.9992 28.2546 20.1632C28.4915 20.3273 28.8164 20.2681 28.9805 20.0313C28.9805 20.0313 30.1814 18.2968 30.1854 18.291C30.3468 18.0578 30.2856 17.7257 30.0535 17.565C30.0535 17.565 22.5133 12.3447 22.4997 12.3353C22.2652 12.1729 21.9358 12.2331 21.7738 12.4672L21.5473 12.7944C21.5411 12.7927 21.5351 12.7905 21.5287 12.789C21.2715 12.7284 21.0431 12.5735 20.891 12.3576C20.8899 12.356 20.8889 12.3544 20.8878 12.3527L22.0879 10.6194C22.0879 10.6194 22.5167 10.9162 22.5167 10.9164C22.7446 11.0741 23.0786 11.0214 23.2427 10.7844C23.4068 10.5475 23.3477 10.2224 23.1109 10.0584L22.6819 9.76137L24.072 7.75356C24.3085 7.84231 24.5599 7.88818 24.8166 7.88818C25.2571 7.88818 25.6842 7.75118 26.0392 7.50312L28.0432 8.89062C27.8279 9.73549 28.1521 10.6566 28.8937 11.1701C29.6187 11.6721 30.6039 11.6684 31.3266 11.1637L33.3307 12.5512C33.1582 13.228 33.332 13.954 33.7893 14.4799L32.3988 16.4887ZM22.1739 23.5903C22.1739 23.5903 21.7302 23.0082 21.7301 23.0078C21.5948 22.8303 21.3529 22.7578 21.1426 22.8316L20.4516 23.0736C20.679 22.745 21.1721 22.2756 20.8544 21.8584L20.4106 21.2759C20.4106 21.2759 21.1113 21.4861 21.1121 21.4863C21.6011 21.6329 21.8831 21.0058 22.1076 20.6815C22.1076 20.6815 22.1243 21.4128 22.1243 21.4135C22.1359 21.9225 22.822 21.9992 23.1974 22.1118L22.5063 22.3538C22.293 22.4285 22.152 22.6321 22.1572 22.8582L22.1739 23.5903Z" fill="#4D4D4D"/>
<path d="M10.3333 59H34.3333C34.7018 59 35 58.7018 35 58.3333C35 57.9648 34.7018 57.6666 34.3333 57.6666H10.3333C9.96481 57.6666 9.66663 57.9648 9.66663 58.3333C9.66669 58.7018 9.96488 59 10.3333 59Z" fill="#4D4D4D"/>
<path d="M34.3333 66.3333H10.3333C9.96481 66.3333 9.66663 66.6315 9.66663 67C9.66663 67.3685 9.96481 67.6667 10.3333 67.6667H34.3333C34.7018 67.6667 35 67.3685 35 67C35 66.6315 34.7018 66.3333 34.3333 66.3333Z" fill="#4D4D4D"/>
<path d="M34.3333 75H10.3333C9.96481 75 9.66663 75.2982 9.66663 75.6667C9.66663 76.0352 9.96481 76.3334 10.3333 76.3334H34.3333C34.7018 76.3334 35 76.0352 35 75.6667C35 75.2982 34.7018 75 34.3333 75Z" fill="#4D4D4D"/>
<path d="M6.33331 56.3333H3.66669C3.29819 56.3333 3 56.6315 3 57V59.6667C3 60.0352 3.29819 60.3334 3.66669 60.3334H6.33337C6.70187 60.3334 7.00006 60.0352 7.00006 59.6667V57C7 56.6315 6.70181 56.3333 6.33331 56.3333ZM5.66669 59H4.33331V57.6667H5.66663V59H5.66669Z" fill="#4D4D4D"/>
<path d="M6.33331 65H3.66669C3.29819 65 3 65.2982 3 65.6667V68.3334C3 68.7018 3.29819 69 3.66669 69H6.33337C6.70181 69 7 68.7018 7 68.3333V65.6666C7 65.2982 6.70181 65 6.33331 65ZM5.66669 67.6667H4.33331V66.3334H5.66663V67.6667H5.66669Z" fill="#4D4D4D"/>
<path d="M6.33331 73.6667H3.66669C3.29819 73.6667 3 73.9649 3 74.3333V77C3 77.3685 3.29819 77.6667 3.66669 77.6667H6.33337C6.70181 77.6667 7 77.3685 7 77V74.3333C7 73.9649 6.70181 73.6667 6.33331 73.6667ZM5.66669 76.3333H4.33331V75H5.66663V76.3333H5.66669Z" fill="#4D4D4D"/>
<g clip-path="url(#clip0)">
<path d="M12.2157 97.7806H8.6659C7.7094 97.7806 6.93127 98.5588 6.93127 99.5153C6.93127 100.472 7.7094 101.25 8.66584 101.25H12.2156C13.1721 101.25 13.9502 100.472 13.9502 99.5153C13.9502 98.5589 13.1721 97.7806 12.2157 97.7806ZM12.2157 100.312H8.6659C8.22634 100.312 7.86877 99.9547 7.86877 99.5152C7.86877 99.0757 8.2264 98.7181 8.6659 98.7181H12.2157C12.6553 98.7181 13.0128 99.0757 13.0128 99.5152C13.0128 99.9547 12.6552 100.312 12.2157 100.312Z" fill="#4D4D4D"/>
<path d="M13.5833 103.701C12.1813 103.702 11.0408 104.842 11.0408 106.244C11.0408 107.646 12.1814 108.786 13.5833 108.786C14.9851 108.786 16.1258 107.646 16.1258 106.244C16.1258 104.842 14.9851 103.701 13.5833 103.701ZM13.5832 107.849C12.6982 107.849 11.9782 107.129 11.9782 106.244C11.9783 105.359 12.6983 104.639 13.5832 104.639C14.4681 104.639 15.1882 105.359 15.1882 106.244C15.1882 107.129 14.4682 107.849 13.5832 107.849Z" fill="#4D4D4D"/>
<path d="M32.3771 101.25C32.636 101.25 32.8459 101.04 32.8459 100.781V99.1346C32.8459 97.4063 31.4398 96.0003 29.7115 96.0003H19.6237C19.6204 96.0003 19.6173 96 19.6141 96H7.55237C6.22999 96 5.15412 97.0759 5.15412 98.3983V118.53V120.639C5.15412 120.897 5.36399 121.107 5.62287 121.107C5.88174 121.107 6.09162 120.897 6.09162 120.639V118.53V98.3983C6.09162 97.5928 6.74693 96.9375 7.55237 96.9375C7.67949 96.9375 19.589 96.9374 19.6194 96.9376C20.414 96.9376 21.0748 97.595 21.0748 98.3983C21.0721 126.883 21.0816 125.607 21.0673 125.748C21.0636 125.784 21.0579 125.823 21.0512 125.859C21.0508 125.861 21.0504 125.864 21.0499 125.866C20.9483 126.403 20.5424 126.877 19.915 127.029C19.6667 127.081 19.5551 127.051 18.6466 127.06V126.546C18.6466 125.874 18.0999 125.328 17.4279 125.328H16.7507C16.4918 125.328 16.2819 125.538 16.2819 125.796C16.2819 126.055 16.4918 126.265 16.7507 126.265H17.4279C17.5803 126.265 17.7091 126.394 17.7091 126.546V127.06H9.45724V126.546C9.45724 126.394 9.58606 126.265 9.73849 126.265H14.5631C14.822 126.265 15.0319 126.055 15.0319 125.796C15.0319 125.538 14.822 125.328 14.5631 125.328H9.73849C9.06649 125.328 8.51974 125.874 8.51974 126.546V127.06H7.55224C6.74674 127.06 6.09149 126.405 6.09149 125.599C6.09149 125.316 6.09149 123.093 6.09149 122.826C6.09149 122.567 5.88162 122.357 5.62274 122.357C5.36387 122.357 5.15399 122.567 5.15399 122.826C5.15399 123.096 5.15399 125.307 5.15399 125.599C5.15399 126.922 6.22987 127.997 7.55224 127.997C20.7645 127.997 19.7462 128.017 20.0735 127.953H29.7112C31.4395 127.953 32.8456 126.547 32.8456 124.818V102.969C32.8456 102.71 32.6357 102.5 32.3769 102.5C32.1179 102.5 31.9081 102.71 31.9081 102.969V124.818C31.9081 126.03 30.9226 127.015 29.7112 127.015H21.5502C21.721 126.782 21.8451 126.519 21.9182 126.265H29.7114C30.5093 126.265 31.1583 125.616 31.1583 124.818V99.1346C31.1583 98.3367 30.5092 97.6877 29.7114 97.6877H21.9047C21.8195 97.4134 21.6857 97.1603 21.5143 96.9377H29.7114C30.9229 96.9377 31.9083 97.9233 31.9083 99.1346V100.781C31.9084 101.04 32.1182 101.25 32.3771 101.25ZM22.0122 98.6252H29.7114C29.9924 98.6252 30.2209 98.8537 30.2209 99.1346V124.818C30.2209 125.099 29.9924 125.328 29.7114 125.328H22.0122V98.6252Z" fill="#4D4D4D"/>
</g>
<path d="M20.5291 152.708C20.6177 152.291 20.2888 151.892 19.8643 151.892C19.6404 151.892 19.4385 152 19.3103 152.187C19.3103 152.187 15.6553 157.516 15.6494 157.524C15.2844 158.056 15.6812 158.802 16.3237 158.802H18.0987L17.4378 161.625C17.4368 161.628 17.4361 161.632 17.4353 161.635C17.3496 162.043 17.669 162.451 18.1001 162.451C18.324 162.451 18.5259 162.344 18.6543 162.156C18.6543 162.156 22.3111 156.825 22.3152 156.819C22.6809 156.286 22.2835 155.542 21.6409 155.542H19.8657L20.5269 152.719C20.5276 152.715 20.5283 152.712 20.5291 152.708V152.708ZM21.4116 156.479L18.6695 160.477C18.6695 160.477 19.1455 158.443 19.1465 158.44C19.2144 158.15 18.9866 157.865 18.69 157.865H16.553L19.2952 153.867C19.2952 153.867 18.8196 155.898 18.8181 155.903C18.7503 156.194 18.9773 156.479 19.2747 156.479H21.4116Z" fill="#4D4D4D"/>
<path d="M17.3643 143.992H15.9844C15.3743 143.992 14.8779 144.488 14.8779 145.098V146.478C14.8779 147.088 15.3743 147.584 15.9844 147.584H17.3643C17.9744 147.584 18.4707 147.088 18.4707 146.478V145.098C18.4707 144.488 17.9744 143.992 17.3643 143.992ZM17.5332 146.478C17.5332 146.571 17.4573 146.647 17.364 146.647H15.9844C15.8911 146.647 15.8154 146.571 15.8154 146.478V145.098C15.8154 145.005 15.8911 144.929 15.9844 144.929H17.364C17.4573 144.929 17.5332 145.005 17.5332 145.098V146.478Z" fill="#4D4D4D"/>
<path d="M21.98 143.992H20.6003C19.9902 143.992 19.4937 144.488 19.4937 145.098V146.478C19.4937 147.088 19.9902 147.584 20.6003 147.584H21.98C22.5901 147.584 23.0867 147.088 23.0867 146.478V145.098C23.0867 144.488 22.5901 143.992 21.98 143.992ZM22.1492 146.478C22.1492 146.571 22.0732 146.647 21.98 146.647H20.6003C20.5071 146.647 20.4312 146.571 20.4312 146.478V145.098C20.4312 145.005 20.5071 144.929 20.6003 144.929H21.98C22.0732 144.929 22.1492 145.005 22.1492 145.098V146.478Z" fill="#4D4D4D"/>
<path d="M26.5896 151.851C26.5896 150.792 25.8413 149.905 24.8457 149.689V142.994C24.8457 141.895 23.9512 141 22.8518 141H15.1128C14.0134 141 13.1189 141.895 13.1189 142.994V149.689C12.1233 149.905 11.375 150.792 11.375 151.851V153.246C11.375 153.505 11.585 153.715 11.8438 153.715C12.1025 153.715 12.3125 153.505 12.3125 153.246V151.851C12.3125 151.148 12.8845 150.576 13.5876 150.576H24.377C25.0801 150.576 25.6521 151.148 25.6521 151.851V156.683C25.6521 156.942 25.8618 157.152 26.1208 157.152C26.3796 157.152 26.5896 156.942 26.5896 156.683V151.851ZM23.9082 149.639H14.0564V142.994C14.0564 142.411 14.5303 141.938 15.1128 141.938H22.8516C23.4341 141.938 23.908 142.411 23.908 142.994V149.639H23.9082Z" fill="#4D4D4D"/>
<path d="M17.9153 173H20.0491C20.3081 173 20.5178 172.79 20.5178 172.531V169.026C21.4534 168.812 22.1538 167.974 22.1538 166.974V164.767C24.6389 164.53 26.5896 162.432 26.5896 159.886V158.558C26.5896 158.299 26.3796 158.089 26.1208 158.089C25.8618 158.089 25.6521 158.299 25.6521 158.558V159.886C25.6521 162.073 23.8723 163.853 21.6851 163.853H16.2795C14.092 163.853 12.3125 162.073 12.3125 159.886V155.121C12.3125 154.862 12.1025 154.652 11.8438 154.652C11.585 154.652 11.375 154.862 11.375 155.121V159.886C11.375 162.432 13.3257 164.531 15.8108 164.767V166.974C15.8108 167.974 16.5112 168.812 17.4465 169.026V172.531C17.4465 172.79 17.6565 173 17.9153 173ZM19.5803 172.062H18.384V169.079H19.5803V172.062ZM16.7483 166.974V164.79H21.2163V166.974C21.2163 167.618 20.6926 168.141 20.0491 168.141H17.9153C17.272 168.141 16.7483 167.618 16.7483 166.974Z" fill="#4D4D4D"/>
<g clip-path="url(#clip1)">
<path d="M32.1892 215.342L30.9392 192.091C30.8635 190.682 29.7766 189.569 28.4402 189.503V187.875C28.4402 186.841 27.5989 186 26.5652 186H24.0652C23.0312 186 22.1902 186.841 22.1902 187.875V188.5H15.9402V187.875C15.9402 186.841 15.0991 186 14.0652 186H11.5652C10.5312 186 9.69016 186.841 9.69016 187.875V189.503C8.35349 189.569 7.26682 190.682 7.19114 192.091L7.09177 193.938C7.07322 194.283 7.33762 194.577 7.68235 194.596C7.69383 194.596 7.70506 194.597 7.71653 194.597C8.04612 194.597 8.322 194.339 8.34007 194.005L8.43919 192.158C8.47996 191.401 9.00852 190.82 9.69016 190.756V201C9.69016 202.448 10.8677 203.625 12.3152 203.625H17.1902V204.25C17.1902 205.284 18.0312 206.125 19.0652 206.125C20.0991 206.125 20.9402 205.284 20.9402 204.25V203.625H25.8152C27.2627 203.625 28.4402 202.448 28.4402 201V190.756C29.1218 190.82 29.6504 191.401 29.6909 192.158L30.9409 215.409C30.9585 215.734 30.8366 216.052 30.5979 216.304C30.3293 216.588 29.9531 216.75 29.5652 216.75H28.4402V210.375C28.4402 208.927 27.2624 207.75 25.8152 207.75H12.3152C10.8677 207.75 9.69016 208.927 9.69016 210.375V216.75H8.56516C8.17722 216.75 7.80076 216.588 7.53245 216.304C7.29368 216.052 7.17185 215.734 7.18919 215.409L8.07151 198.998C8.09007 198.654 7.82566 198.359 7.48094 198.341C7.13767 198.323 6.84177 198.586 6.82346 198.931L5.9409 215.342C5.90476 216.013 6.14793 216.661 6.62522 217.164C7.1284 217.695 7.83567 218 8.56516 218H29.5652C30.2947 218 31.0017 217.695 31.5051 217.164C31.9824 216.66 32.2253 216.013 32.1892 215.342ZM23.4402 187.875C23.4402 187.53 23.7204 187.25 24.0652 187.25H26.5652C26.9096 187.25 27.1902 187.53 27.1902 187.875V188.544C27.0696 188.516 26.9443 188.5 26.8152 188.5H23.4402V187.875ZM11.5652 187.25H14.0652C14.4096 187.25 14.6902 187.53 14.6902 187.875V188.5H11.3152C11.186 188.5 11.0605 188.516 10.9402 188.544V187.875C10.9402 187.53 11.2204 187.25 11.5652 187.25ZM19.6902 204.25C19.6902 204.595 19.4096 204.875 19.0652 204.875C18.7204 204.875 18.4402 204.595 18.4402 204.25V201.75C18.4402 201.406 18.7204 201.125 19.0652 201.125C19.4096 201.125 19.6902 201.406 19.6902 201.75V204.25ZM27.1902 201C27.1902 201.758 26.5732 202.375 25.8152 202.375H20.9402V201.75C20.9402 200.716 20.0989 199.875 19.0652 199.875C18.0312 199.875 17.1902 200.716 17.1902 201.75V202.375H12.3152C11.5571 202.375 10.9402 201.758 10.9402 201V190.125C10.9402 189.922 11.1118 189.75 11.3152 189.75H26.8152C27.0183 189.75 27.1902 189.922 27.1902 190.125V201ZM12.3152 209H25.8152C26.5312 209 27.1208 209.55 27.1841 210.25H10.946C11.0095 209.55 11.5991 209 12.3152 209ZM10.9402 211.5H27.1902V216.75H10.9402V211.5Z" fill="#4D4D4D"/>
<path d="M19.0652 191.062C16.9973 191.062 15.3152 192.745 15.3152 194.812C15.3152 196.88 16.9973 198.562 19.0652 198.562C21.1328 198.562 22.8152 196.88 22.8152 194.812C22.8152 192.745 21.1328 191.062 19.0652 191.062V191.062ZM21.5652 194.812C21.5652 195.179 21.4851 195.528 21.3425 195.842L19.6902 194.189V192.392C20.7673 192.67 21.5652 193.65 21.5652 194.812ZM18.4402 197.233C18.124 197.152 17.832 197.01 17.5771 196.82L18.4402 195.957V197.233ZM19.6902 195.957L20.5532 196.82C20.2981 197.01 20.0063 197.152 19.6902 197.233V195.957ZM18.4402 192.392V194.189L16.7876 195.842C16.6453 195.528 16.5652 195.179 16.5652 194.812C16.5652 193.65 17.363 192.67 18.4402 192.392Z" fill="#4D4D4D"/>
<path d="M19.0654 214.25H19.0649C18.72 214.25 18.4402 214.53 18.4402 214.875C18.4402 215.22 18.7202 215.5 19.0654 215.5C19.4106 215.5 19.6904 215.22 19.6904 214.875C19.6904 214.53 19.4106 214.25 19.0654 214.25Z" fill="#4D4D4D"/>
<path d="M25.3149 214.25H21.5652C21.22 214.25 20.9402 214.53 20.9402 214.875C20.9402 215.22 21.22 215.5 21.5652 215.5H25.3149C25.6602 215.5 25.9399 215.22 25.9399 214.875C25.9399 214.53 25.6602 214.25 25.3149 214.25Z" fill="#4D4D4D"/>
<path d="M7.54249 197.092C7.55568 197.093 7.56886 197.094 7.58204 197.094C7.90944 197.094 8.18458 196.839 8.20533 196.508V196.507C8.22682 196.163 7.96486 195.866 7.62037 195.844C7.27589 195.822 6.97926 196.085 6.95778 196.429C6.93629 196.774 7.19801 197.071 7.54249 197.092Z" fill="#4D4D4D"/>
</g>
<g clip-path="url(#clip2)">
<path d="M33.4744 249.743H32.9955V245.43C32.9955 244.747 32.6556 244.142 32.1366 243.775V243.188C32.1366 242.336 31.4435 241.643 30.5916 241.643H30.234L31.6021 239.635C32.0606 238.962 31.8862 238.042 31.2134 237.583L21.9302 231.257C21.6042 231.035 21.2114 230.953 20.8236 231.026C20.4361 231.1 20.1002 231.32 19.8781 231.646L11.8656 243.403H9.63586L10.1738 237.958C10.1799 237.896 10.2197 237.843 10.2754 237.822C10.9684 237.561 11.5691 237.073 11.9666 236.448C11.9979 236.399 12.0569 236.371 12.1181 236.377L15.6152 236.723C15.866 236.747 16.0891 236.564 16.1138 236.314C16.1386 236.063 15.9555 235.84 15.7049 235.815L12.2077 235.47C11.8017 235.43 11.4146 235.617 11.1971 235.959C10.9049 236.418 10.4632 236.777 9.95368 236.969C9.57011 237.114 9.30674 237.458 9.26624 237.868L8.71949 243.403H8.13805L8.9888 234.791C9.01943 234.481 9.29611 234.253 9.60649 234.284L16.6736 234.982C16.9242 235.006 17.1474 234.824 17.1722 234.573C17.1969 234.322 17.0139 234.099 16.7632 234.075L9.69611 233.376C8.88586 233.296 8.1613 233.891 8.08124 234.701L7.39549 241.643H6.22768C5.3758 241.643 4.68268 242.336 4.68268 243.188V243.588C3.98574 243.909 3.50049 244.614 3.50049 245.43V260.973C3.50049 262.091 4.40961 263 5.52718 263H30.9689C32.0864 263 32.9955 262.091 32.9955 260.973V256.66H33.4744C34.0396 256.66 34.4994 256.2 34.4994 255.635V250.768C34.4995 250.203 34.0396 249.743 33.4744 249.743ZM30.5916 242.555C30.9407 242.555 31.2246 242.839 31.2246 243.188V243.42C31.1407 243.41 31.0556 243.403 30.9689 243.403H29.0342L29.6125 242.555H30.5916ZM20.6317 232.159C20.7167 232.035 20.8451 231.95 20.9934 231.922C21.0288 231.916 21.0644 231.912 21.0997 231.912C21.212 231.912 21.3217 231.946 21.4166 232.01L30.6998 238.337C30.9572 238.512 31.0239 238.864 30.8486 239.122L27.9307 243.403H27.2304L28.661 241.304C28.893 240.964 28.9121 240.53 28.7107 240.173C28.4431 239.699 28.3346 239.14 28.4052 238.6C28.4577 238.199 28.281 237.807 27.944 237.577L23.1316 234.298C22.7946 234.068 22.3649 234.047 22.0103 234.243C21.5337 234.506 20.9742 234.609 20.4348 234.534C20.0348 234.477 19.6291 234.658 19.4006 234.993L13.6694 243.403H12.9691L20.6317 232.159ZM20.8325 239.902C18.8468 239.902 17.2168 241.451 17.084 243.403H14.7728L20.154 235.507C20.1541 235.507 20.1541 235.507 20.1541 235.507C20.1846 235.462 20.2353 235.435 20.2874 235.435C20.2943 235.435 20.3012 235.436 20.3082 235.437C21.0418 235.539 21.8027 235.399 22.451 235.041C22.502 235.013 22.5675 235.017 22.618 235.051L27.4304 238.331C27.4808 238.365 27.5085 238.425 27.501 238.482C27.4049 239.217 27.5526 239.976 27.9165 240.621C27.9457 240.673 27.9421 240.74 27.9075 240.791L26.127 243.403H24.5812C24.4482 241.451 22.8183 239.902 20.8325 239.902ZM23.6667 243.403H17.9983C18.1289 241.954 19.3498 240.814 20.8325 240.814C22.3152 240.814 23.5362 241.954 23.6667 243.403ZM5.59461 243.188C5.59461 242.839 5.87855 242.555 6.22768 242.555H7.30543L7.22161 243.403H5.59461V243.188ZM4.41243 245.43C4.41243 244.815 4.91249 244.315 5.52718 244.315H30.9689C31.5836 244.315 32.0836 244.815 32.0836 245.43V246.695H4.41243V245.43ZM32.0836 260.973C32.0836 261.588 31.5836 262.088 30.9689 262.088H5.52718C4.91249 262.088 4.41243 261.588 4.41243 260.973V259.708H6.8713C7.12318 259.708 7.32724 259.504 7.32724 259.252C7.32724 259 7.12311 258.796 6.8713 258.796H4.41243V247.607H32.0836V249.743H27.7482H27.7481C26.3821 249.743 25.1989 250.54 24.6373 251.692C24.6354 251.696 24.6333 251.7 24.6314 251.704C24.6266 251.714 24.6225 251.724 24.6179 251.734C24.551 251.876 24.4929 252.023 24.4456 252.174C24.4454 252.175 24.4453 252.175 24.4452 252.176C24.3442 252.5 24.2898 252.845 24.2898 253.202C24.2898 255.109 25.8412 256.66 27.7481 256.66H27.7481H32.0835V258.796H9.79093C9.53905 258.796 9.33499 259 9.33499 259.252C9.33499 259.504 9.53911 259.708 9.79093 259.708H32.0836V260.973ZM33.5876 255.635C33.5876 255.697 33.5368 255.748 33.4744 255.748H27.7482C26.7829 255.748 25.9413 255.208 25.5096 254.414C25.49 254.378 25.4712 254.342 25.4533 254.305C25.4175 254.231 25.3852 254.154 25.3566 254.076C25.2565 253.803 25.2019 253.509 25.2019 253.202C25.2019 252.895 25.2566 252.6 25.3566 252.327C25.3852 252.249 25.4176 252.173 25.4533 252.099C25.4712 252.062 25.49 252.025 25.5096 251.989C25.9413 251.195 26.7829 250.655 27.7482 250.655H33.4744C33.5367 250.655 33.5876 250.706 33.5876 250.768V255.635Z" fill="#4D4D4D"/>
<path d="M27.855 251.352C26.8349 251.352 26.005 252.182 26.005 253.202C26.005 254.222 26.8349 255.052 27.855 255.052C28.8751 255.052 29.705 254.222 29.705 253.202C29.705 252.182 28.8751 251.352 27.855 251.352ZM27.855 254.14C27.3378 254.14 26.9169 253.719 26.9169 253.202C26.9169 252.684 27.3378 252.264 27.855 252.264C28.3723 252.264 28.7931 252.684 28.7931 253.202C28.7931 253.719 28.3723 254.14 27.855 254.14Z" fill="#4D4D4D"/>
</g>
<g clip-path="url(#clip3)">
<path d="M23.0174 282.738C23.0174 280.652 21.3201 278.954 19.2337 278.954C17.1475 278.954 15.45 280.652 15.45 282.738C15.45 284.824 17.1475 286.522 19.2337 286.522C21.3201 286.522 23.0174 284.824 23.0174 282.738ZM16.3875 282.738C16.3875 281.169 17.6643 279.892 19.2337 279.892C20.8033 279.892 22.0799 281.169 22.0799 282.738C22.0799 284.307 20.8033 285.584 19.2337 285.584C17.6643 285.584 16.3875 284.307 16.3875 282.738ZM34.1036 285.039V282.346C34.1036 281.895 34.0452 281.444 33.9302 281.007L33.7391 280.28C33.6238 279.842 33.2269 279.536 32.7735 279.536H32.1863C31.733 279.536 31.336 279.842 31.2208 280.28L31.0296 281.007C30.9146 281.444 30.8563 281.895 30.8563 282.346V285.039C30.3721 285.203 30.0223 285.662 30.0223 286.201V286.743C30.0223 287.001 30.2322 287.211 30.491 287.211C30.7498 287.211 30.9598 287.001 30.9598 286.743V286.201C30.9598 286.041 31.0904 285.91 31.2508 285.91H33.709C33.8694 285.91 34.0001 286.041 34.0001 286.201V290.083H30.9598V288.978C30.9598 288.719 30.7498 288.509 30.491 288.509C30.2322 288.509 30.0223 288.719 30.0223 288.978V293.153C30.0223 293.742 30.439 294.235 30.9932 294.354V302.772C30.9932 304.065 29.9407 305.118 28.647 305.118H27.5709C27.3755 304.766 27.0198 304.513 26.5945 304.465L23.7095 304.139C23.3472 304.098 22.9834 304.214 22.7115 304.457C22.523 304.625 22.3904 304.844 22.3267 305.084C21.4139 304.914 20.7205 304.111 20.7205 303.15V296.391C21.1814 296.077 21.4847 295.548 21.4847 294.949V287.948C23.4976 287.075 24.9095 285.068 24.9095 282.738C24.9095 279.609 22.3633 277.062 19.2337 277.062C16.1043 277.062 13.5581 279.608 13.5581 282.738C13.5581 285.068 14.97 287.075 16.9829 287.948V294.949C16.9829 295.548 17.2862 296.077 17.7469 296.391V303.15C17.7469 303.832 17.888 304.5 18.1577 305.118H10.1597C9.07423 305.118 8.19142 304.235 8.19142 303.15V302.466C8.19142 302.207 7.98146 301.997 7.72267 301.997C7.46388 301.997 7.25391 302.207 7.25391 302.466V303.15C7.25391 304.752 8.55738 306.055 10.1597 306.055H18.9402H18.9412H18.9419H22.2837V307.154H10.1597C7.95167 307.154 6.15528 305.358 6.15528 303.15V296.691C6.1692 296.691 6.18287 296.692 6.19678 296.692H7.21266C7.22633 296.692 7.24024 296.691 7.25391 296.691V300.281C7.25391 300.54 7.46388 300.75 7.72267 300.75C7.98146 300.75 8.19142 300.54 8.19142 300.281V296.391C8.65211 296.077 8.95533 295.548 8.95533 294.949V288.464C8.95533 288.377 9.00343 288.324 9.03199 288.3C9.0608 288.276 9.12159 288.239 9.20704 288.253L9.87868 288.374C9.9529 288.387 10.0274 288.396 10.1018 288.403C10.1048 288.403 10.1074 288.404 10.1104 288.404C10.7735 288.461 11.4321 288.256 11.948 287.824C12.5242 287.343 12.8545 286.635 12.8545 285.885V279.592C12.8545 278.841 12.5242 278.134 11.948 277.652C11.4321 277.221 10.7732 277.016 10.1101 277.073C10.1074 277.073 10.1048 277.073 10.1021 277.074C10.0276 277.08 9.9529 277.089 9.87868 277.103L6.22559 277.758C4.32032 278.1 2.9375 279.753 2.9375 281.689V283.788C2.9375 284.825 3.3335 285.807 4.05225 286.555C4.31128 286.825 4.45386 287.192 4.45386 287.591V294.949C4.45386 295.548 4.75708 296.077 5.21778 296.391V303.15C5.21778 305.875 7.43458 308.092 10.1597 308.092H22.3223C22.3843 308.338 22.5186 308.564 22.7115 308.736C22.9473 308.947 23.2525 309.062 23.5657 309.062C23.6136 309.062 23.6614 309.06 23.7095 309.054L26.5945 308.728C27.0132 308.68 27.3646 308.435 27.5616 308.091H28.647C31.5804 308.091 33.9666 305.705 33.9666 302.772V294.354C34.5206 294.235 34.9376 293.742 34.9376 293.153V286.201C34.9376 285.662 34.5877 285.203 34.1036 285.039V285.039ZM33.1661 284.972H31.7938V283.885H33.1661V284.972ZM33.1661 282.948H31.7938V282.346C31.7938 281.975 31.8419 281.604 31.9363 281.245L32.1273 280.519C32.1343 280.492 32.1585 280.473 32.1863 280.473H32.7735C32.8013 280.473 32.8255 280.492 32.8326 280.519L33.0235 281.245C33.118 281.604 33.1661 281.975 33.1661 282.346V282.948ZM14.4956 282.738C14.4956 280.125 16.6211 278 19.2337 278C21.8462 278 23.972 280.125 23.972 282.738C23.972 285.351 21.8462 287.476 19.2337 287.476C16.6211 287.476 14.4956 285.351 14.4956 282.738V282.738ZM17.9204 294.949V288.26C18.3421 288.36 18.7818 288.414 19.2337 288.414C19.6858 288.414 20.1255 288.36 20.5472 288.26V294.949C20.5472 295.393 20.1858 295.755 19.7417 295.755H18.7259C18.2818 295.755 17.9204 295.394 17.9204 294.949V294.949ZM19.2044 305.118C18.8638 304.518 18.6844 303.843 18.6844 303.15V296.691C18.6983 296.691 18.7119 296.692 18.7259 296.692H19.7417C19.7556 296.692 19.7693 296.691 19.783 296.691V303.15C19.783 303.908 20.0757 304.6 20.5535 305.118H19.2044ZM10.6221 278.029C10.8855 278.079 11.1353 278.195 11.3465 278.371C11.709 278.675 11.9168 279.12 11.9168 279.592V285.885C11.9168 286.357 11.709 286.802 11.3465 287.105C11.135 287.282 10.8855 287.398 10.6221 287.448V278.029ZM5.39136 294.949V287.591C5.39136 286.949 5.15577 286.35 4.72828 285.906C4.17798 285.333 3.875 284.581 3.875 283.788V281.689C3.875 280.207 4.93311 278.943 6.39112 278.681L9.68458 278.09V287.387L9.37257 287.331C9.0359 287.27 8.69264 287.362 8.43043 287.581C8.16822 287.8 8.01783 288.122 8.01783 288.464V294.949C8.01783 295.394 7.65675 295.755 7.21266 295.755H6.19654C5.75269 295.755 5.39136 295.394 5.39136 294.949ZM26.7947 307.454C26.7947 307.476 26.7925 307.497 26.7886 307.518C26.7881 307.52 26.7876 307.522 26.7872 307.524C26.7576 307.667 26.6397 307.779 26.4891 307.796L23.604 308.123C23.4712 308.138 23.3789 308.076 23.336 308.037C23.293 307.999 23.2212 307.915 23.2212 307.781V305.412C23.2212 305.278 23.2933 305.194 23.336 305.156C23.3746 305.121 23.4522 305.068 23.5635 305.068C23.5765 305.068 23.5901 305.069 23.604 305.07L26.4891 305.397C26.6634 305.416 26.7947 305.563 26.7947 305.739V307.454ZM33.0294 302.772C33.0294 305.188 31.0635 307.154 28.647 307.154H27.7322V306.055H28.647C30.4576 306.055 31.9307 304.583 31.9307 302.772V294.381H33.0294V302.772ZM34.0001 293.153C34.0001 293.313 33.8694 293.444 33.709 293.444H31.2508C31.0904 293.444 30.9598 293.313 30.9598 293.153V291.021H34.0001V293.153ZM7.89601 284.957C8.1548 284.957 8.36476 284.747 8.36476 284.488V283.416C8.36476 283.157 8.1548 282.948 7.89601 282.948C7.63697 282.948 7.42726 283.157 7.42726 283.416V284.488C7.42726 284.747 7.63697 284.957 7.89601 284.957Z" fill="#4D4D4D"/>
</g>
<defs>
<clipPath id="clip0">
<rect width="32" height="32" fill="white" transform="translate(3 96)"/>
</clipPath>
<clipPath id="clip1">
<rect width="32" height="32" fill="white" transform="translate(3 186)"/>
</clipPath>
<clipPath id="clip2">
<rect width="32" height="32" fill="white" transform="translate(3 231)"/>
</clipPath>
<clipPath id="clip3">
<rect width="32" height="32" fill="white" transform="translate(3 277)"/>
</clipPath>
</defs>
</svg>
