<svg width="30" height="15" viewBox="0 0 30 15" fill="none" xmlns="http://www.w3.org/2000/svg">
<path d="M30 5.808L24.6068 5.34524L22.5 0.375L20.3933 5.34524L15 5.808L19.0913 9.35326L17.865 14.625L22.5 11.829L27.135 14.6243L25.9088 9.35253L30 5.808ZM22.5 10.422V3.44624L23.7825 6.47324L27.0675 6.75524L24.576 8.91374L25.323 12.1245L22.5 10.422Z" fill="#3B3B3B"/>
<path d="M15 5.808L9.60677 5.34524L7.5 0.375L5.39327 5.34524L0 5.808L4.09126 9.35327L2.865 14.625L7.5 11.829L12.135 14.6243L10.9088 9.35253L15 5.808ZM7.5 10.422V3.44624L8.7825 6.47324L12.0675 6.75524L9.57597 8.91374L10.323 12.1245L7.5 10.422Z" fill="#3B3B3B"/>
<path d="M7.5 10.422V3.44624L8.7825 6.47324L12.0675 6.75524L9.57597 8.91374L10.323 12.1245L7.5 10.422Z" fill="#3B3B3B"/>
</svg>
