<svg width="36" height="36" viewBox="0 0 36 36" fill="none" xmlns="http://www.w3.org/2000/svg">
<path d="M22.5168 0H13.5527L12.9803 0.572388V3.76501L13.5527 4.3374H22.5168L23.0891 3.76501V0.572388L22.5168 0ZM22.035 3.28326H20.9042V1.9325H19.8501V3.28326H18.562V1.9325H17.5078V3.28326H16.2079V1.9325H15.1537V3.28326H14.0345V1.05414H22.0353V3.28326H22.035Z" fill="white"/>
<path d="M28.6993 10.2538C25.8506 7.40533 22.0633 5.83649 18.0349 5.83649C14.0065 5.83649 10.2189 7.40533 7.37045 10.2538C4.52197 13.1026 2.95312 16.8898 2.95312 20.9182C2.95312 24.9467 4.52197 28.7342 7.37045 31.5827C10.2189 34.4312 14.0065 36 18.0349 36C22.0633 36 25.8506 34.4312 28.6993 31.5827C31.5478 28.7342 33.1166 24.9467 33.1166 20.9182C33.1166 16.8898 31.5478 13.1026 28.6993 10.2538V10.2538ZM18.0349 34.9459C10.3 34.9459 4.00699 28.6532 4.00699 20.9182C4.00699 13.1833 10.3 6.89062 18.0349 6.89062C25.7695 6.89062 32.0625 13.1833 32.0625 20.9182C32.0625 28.6532 25.7698 34.9459 18.0349 34.9459V34.9459Z" fill="white"/>
<path d="M18.0349 9.38123C11.6732 9.38123 6.49757 14.5566 6.49757 20.9182C6.49757 27.2799 11.6732 32.4555 18.0349 32.4555C24.3965 32.4555 29.5719 27.2799 29.5719 20.9182C29.5719 14.5566 24.3965 9.38123 18.0349 9.38123V9.38123ZM25.0617 13.146L23.2852 14.9225L24.0304 15.6679L25.8071 13.8911C27.4911 15.7516 28.518 18.2173 28.518 20.9182C28.518 23.6192 27.4908 26.0848 25.8071 27.9454L24.0304 26.1686L23.2852 26.914L25.0617 28.6905C23.3231 30.2643 21.0558 31.2641 18.5617 31.3882V28.8704H17.5078V31.3882C15.0136 31.2641 12.7466 30.2643 11.0077 28.6905L12.7842 26.914L12.0391 26.1686L10.2623 27.9454C8.6888 26.2065 7.68904 23.9392 7.5649 21.4453H10.0824V20.3912H7.5649C7.68904 17.8973 8.6888 15.63 10.2623 13.8911L12.0391 15.6679L12.7842 14.9225L11.0077 13.146C12.8683 11.462 15.3336 10.4351 18.0349 10.4351C20.7359 10.4351 23.2012 11.462 25.0617 13.146V13.146Z" fill="white"/>
<path d="M27.6394 20.3912H18.5617V11.3134H17.5078V21.4453H27.6394V20.3912Z" fill="white"/>
</svg>
